<svg id="visual" viewBox="0 0 900 600" width="900" height="600" xmlns="http://www.w3.org/2000/svg" xmlns:xlink="http://www.w3.org/1999/xlink" version="1.1"><path d="M412 600L445 580C478 560 544 520 535.2 480C526.3 440 442.7 400 416.2 360C389.7 320 420.3 280 460.7 240C501 200 551 160 572 120C593 80 585 40 581 20L577 0L900 0L900 20C900 40 900 80 900 120C900 160 900 200 900 240C900 280 900 320 900 360C900 400 900 440 900 480C900 520 900 560 900 580L900 600Z" fill="#DEECF7" stroke-linecap="round" stroke-linejoin="miter"></path></svg>